<?xml version="1.0" encoding="utf-8"?>
<COLLADA xmlns="http://www.collada.org/2005/11/COLLADASchema" version="1.4.1">
  <asset><contributor><author></author><authoring_tool>FBX COLLADA exporter</authoring_tool><comments></comments></contributor><created>2020-09-23T15:23:51Z</created><keywords></keywords><modified>2020-09-23T15:23:51Z</modified><revision></revision><subject></subject><title></title><unit meter="1.000000" name="centimeter"></unit><up_axis>Y_UP</up_axis></asset>
  <library_images>
    <image id="Map #5-image" name="Map #5"><init_from>file://f-117.dds.png</init_from></image>
  </library_images>
  <library_materials>
    <material id="f-117" name="f-117">
      <instance_effect url="#f-117-fx"/>
    </material>
  </library_materials>
  <library_effects>
    <effect id="f-117-fx" name="f-117">
      <profile_COMMON>
        <technique sid="standard">
          <phong>
            <emission>
              <color sid="emission">0.000000  0.000000 0.000000 1.000000</color>
            </emission>
            <ambient>
              <color sid="ambient">0.588000  0.588000 0.588000 1.000000</color>
            </ambient>
            <diffuse>
              <texture texture="Map #5-image" texcoord="CHANNEL0">
                <extra>
                  <technique profile="MAYA">
                    <wrapU sid="wrapU0">TRUE</wrapU>
                    <wrapV sid="wrapV0">TRUE</wrapV>
                    <blend_mode>ADD</blend_mode>
                  </technique>
                </extra>
              </texture>
            </diffuse>
            <specular>
              <color sid="specular">0.000000  0.000000 0.000000 1.000000</color>
            </specular>
            <shininess>
              <float sid="shininess">2.000000</float>
            </shininess>
            <reflective>
              <color sid="reflective">0.000000  0.000000 0.000000 1.000000</color>
            </reflective>
            <reflectivity>
              <float sid="reflectivity">1.000000</float>
            </reflectivity>
            <transparent opaque="RGB_ZERO">
              <color sid="transparent">1.000000  1.000000 1.000000 1.000000</color>
            </transparent>
            <transparency>
              <float sid="transparency">0.000000</float>
            </transparency>
          </phong>
        </technique>
      </profile_COMMON>
    </effect>
  </library_effects>
  <library_geometries>
    <geometry id="hull-lib" name="hullMesh">
      <mesh>
        <source id="hull-POSITION">
          <float_array id="hull-POSITION-array" count="441">
2.581064 -4.220237 0.880424
1.510101 5.916126 0.727818
1.873818 -4.220237 1.339205
1.218766 7.067296 1.926703
0.000000 5.916126 0.727818
0.000000 -4.220237 0.880424
0.000000 -4.220237 1.803114
0.000000 5.772768 3.068250
0.313639 9.090365 1.005059
2.397591 -5.044782 0.880424
1.690345 -5.044782 1.317880
0.293045 -6.661453 1.115326
0.000000 -6.661453 1.175226
2.773391 2.010144 1.286615
1.971889 2.441045 2.130733
1.908994 4.565556 1.286615
1.722513 3.822029 1.872102
1.198109 4.772105 1.872102
0.000000 4.989005 2.969024
0.484480 5.014122 2.821598
1.492286 5.752939 1.286615
1.151454 3.841609 1.973620
1.107106 2.451322 2.375221
0.665467 3.811175 2.628489
0.000000 3.789330 2.817142
0.000000 1.988370 0.786951
2.704108 1.988370 0.839037
1.874758 4.543979 0.796989
0.000000 7.778720 1.820762
0.658901 8.318663 1.356621
6.487485 -6.818313 1.167218
6.641912 -6.645816 1.167218
6.487485 -6.818313 1.046192
6.641913 -6.645817 1.004144
2.581065 -4.220237 1.083519
1.999572 4.792074 1.041802
5.667440 -7.751138 1.127399
6.759516 -6.512622 1.085681
6.591733 -7.667765 1.106705
0.000000 -1.912014 0.845673
2.626809 -1.912014 0.865037
6.172572 -7.176535 1.062086
6.102743 -8.199138 1.114652
6.172573 -7.176535 1.167218
2.652567 -1.903919 1.286615
1.910279 -1.743720 1.633478
6.746161 -7.494228 1.094770
3.103941 2.169237 1.051982
2.911858 2.109626 0.842056
2.951945 2.095006 1.260304
1.000291 -6.661453 0.996960
0.000000 -6.661453 0.996960
-1.510101 5.916126 0.727818
-1.874758 4.543979 0.796989
0.000000 4.781285 0.744903
-1.873818 -4.220237 1.339205
-1.107106 2.451322 2.375221
0.000000 2.435139 2.645699
-1.218766 7.067296 1.926703
-0.658901 8.318663 1.356621
0.000000 9.090365 1.005059
-0.313639 9.090365 1.005059
-2.581064 -4.220237 0.880424
-2.397591 -5.044782 0.880424
0.000000 -5.044782 0.880424
-2.581065 -4.220237 1.083519
0.000000 -5.044782 1.527707
-1.690345 -5.044782 1.317880
-1.000291 -6.661453 0.996960
-0.293045 -6.661453 1.115326
-2.652567 -1.903919 1.286615
-1.910279 -1.743720 1.633478
-1.971889 2.441045 2.130733
-2.773391 2.010144 1.286615
-1.908994 4.565556 1.286615
-1.722513 3.822029 1.872102
-1.198109 4.772105 1.872102
-0.484480 5.014122 2.821598
-1.151454 3.841609 1.973620
-0.665467 3.811175 2.628489
-1.492286 5.752939 1.286615
-2.704108 1.988370 0.839037
-2.626809 -1.912014 0.865037
-1.999572 4.792074 1.041802
0.000000 10.064315 1.119537
-2.951945 2.095006 1.260304
-2.911858 2.109626 0.842056
-6.641913 -6.645817 1.004144
-6.487485 -6.818313 1.046192
-3.103941 2.169237 1.051982
-6.172573 -7.176535 1.167218
-6.487485 -6.818313 1.167218
-6.746161 -7.494228 1.094770
-6.591733 -7.667765 1.106705
-6.102743 -8.199138 1.114652
-6.759516 -6.512622 1.085681
-6.641912 -6.645816 1.167218
-6.172572 -7.176535 1.062086
-5.667440 -7.751138 1.127399
0.540315 -8.314088 1.968091
1.581470 -10.273810 3.148161
1.567205 -8.380367 3.131161
0.247712 -3.954172 1.624342
0.080423 -7.292575 1.347634
0.187006 -8.037342 1.359527
1.664822 -10.273810 3.082258
1.650558 -8.380367 3.065259
0.331064 -3.954172 1.558439
0.163775 -7.292575 1.281731
0.106459 -8.056021 1.346155
1.677240 -10.519081 3.179676
1.661595 -8.467422 3.161032
0.262570 -3.630487 1.559429
0.080981 -7.265253 1.265680
0.717629 -9.055288 1.983219
0.710497 -8.108566 1.974718
0.683564 -9.187263 2.025241
0.133532 -8.102930 1.511084
0.605820 -9.029053 2.066766
0.331064 -3.954172 1.162861
0.163775 -7.292575 1.162861
0.262570 -3.630487 1.162861
0.080981 -7.265253 1.162861
-0.540315 -8.314088 1.968091
-1.567205 -8.380367 3.131161
-0.247712 -3.954172 1.624342
-0.080423 -7.292575 1.347634
-0.133532 -8.102930 1.511084
-1.581470 -10.273810 3.148161
-0.605820 -9.029053 2.066766
-0.683564 -9.187263 2.025241
-1.677240 -10.519081 3.179676
-1.661595 -8.467422 3.161032
-0.262570 -3.630487 1.559429
-0.080981 -7.265253 1.265680
-0.187006 -8.037342 1.359527
-0.710497 -8.108566 1.974718
-0.717629 -9.055288 1.983219
-0.163775 -7.292575 1.281731
-0.331064 -3.954172 1.558439
-0.106459 -8.056021 1.346155
-1.664822 -10.273810 3.082258
-1.650558 -8.380367 3.065259
-0.163775 -7.292575 1.162861
-0.331064 -3.954172 1.162861
-0.262570 -3.630487 1.162861
-0.080981 -7.265253 1.162861
</float_array>
          <technique_common>
            <accessor source="#hull-POSITION-array" count="147" stride="3">
              <param name="X" type="float"/>
              <param name="Y" type="float"/>
              <param name="Z" type="float"/>
            </accessor>
          </technique_common>
        </source>
        <source id="hull-Normal0">
          <float_array id="hull-Normal0-array" count="2538">
0.013101 -0.032480 -0.999387
0.013101 -0.032480 -0.999387
0.013101 -0.032480 -0.999386
0.013101 -0.032480 -0.999387
0.013101 -0.032480 -0.999387
0.013101 -0.032480 -0.999386
0.244818 -0.115792 0.962630
0.211310 -0.156861 0.964750
0.243701 -0.116839 0.962787
0.211310 -0.156861 0.964750
0.210946 -0.157328 0.964754
0.243701 -0.116839 0.962787
0.221584 0.503924 0.834842
0.221584 0.503924 0.834842
0.221584 0.503924 0.834842
0.221584 0.503924 0.834842
0.221584 0.503924 0.834842
0.221584 0.503924 0.834842
0.925450 0.359321 -0.120131
0.925450 0.359321 -0.120131
0.925450 0.359321 -0.120131
0.000000 0.087010 -0.996207
0.000000 0.087010 -0.996207
0.000000 0.087010 -0.996207
0.000000 0.087010 -0.996207
0.000000 0.087010 -0.996207
0.000000 0.087010 -0.996207
0.000000 -0.000000 -1.000000
0.000000 -0.000000 -1.000000
0.000000 -0.000000 -1.000000
0.000000 -0.000000 -1.000000
0.000000 -0.000000 -1.000000
0.000000 -0.000000 -1.000000
0.976127 -0.217202 -0.000001
0.976127 -0.217202 -0.000001
0.976127 -0.217202 -0.000001
0.157390 -0.207955 0.965393
0.165447 -0.203366 0.965023
0.211310 -0.156861 0.964750
0.210946 -0.157328 0.964754
0.211310 -0.156861 0.964750
0.165447 -0.203366 0.965023
0.000000 -0.071898 -0.997412
0.000000 -0.071898 -0.997412
0.000000 -0.071898 -0.997412
0.000000 -0.071898 -0.997412
0.000000 -0.071898 -0.997412
0.000000 -0.071898 -0.997412
0.346168 -0.322632 0.880952
0.346168 -0.322632 0.880952
0.346168 -0.322632 0.880952
0.346168 -0.322632 0.880952
0.346168 -0.322632 0.880952
0.346168 -0.322632 0.880952
0.157390 -0.207955 0.965393
0.131371 -0.222599 0.966018
0.165447 -0.203366 0.965023
0.131371 -0.222599 0.966018
0.157390 -0.207955 0.965393
0.131371 -0.222599 0.966018
0.503467 -0.080993 0.860210
0.371926 -0.104099 0.922407
0.474238 -0.086453 0.876141
0.474238 -0.086453 0.876141
0.371926 -0.104099 0.922407
0.371926 -0.104099 0.922407
0.768191 0.255911 0.586849
0.768191 0.255911 0.586849
0.768191 0.255911 0.586849
0.768191 0.255911 0.586849
0.768191 0.255911 0.586849
0.768191 0.255911 0.586849
0.796560 -0.021542 0.604175
0.796560 -0.021542 0.604175
0.796560 -0.021542 0.604175
0.294703 -0.120021 0.948022
0.288804 -0.117696 0.950126
0.287343 -0.117120 0.950640
0.791121 0.146320 0.593901
0.791121 0.146320 0.593901
0.791121 0.146320 0.593901
0.657237 0.289378 0.695916
0.657237 0.289378 0.695916
0.657237 0.289378 0.695916
0.657237 0.289378 0.695916
0.657237 0.289378 0.695916
0.657237 0.289378 0.695916
0.206102 0.172169 0.963265
0.232075 0.241642 0.942205
0.212275 0.188480 0.958861
0.232075 0.241642 0.942205
0.232075 0.241642 0.942205
0.212275 0.188480 0.958861
0.268871 -0.117552 0.955976
0.268871 -0.117552 0.955976
0.268871 -0.117552 0.955976
0.268871 -0.117552 0.955976
0.268871 -0.117552 0.955976
0.268871 -0.117552 0.955976
0.212275 0.188480 0.958861
0.177441 0.097940 0.979246
0.206102 0.172169 0.963265
0.267279 -0.112508 0.957029
0.244818 -0.115792 0.962630
0.265006 -0.112088 0.957710
0.265006 -0.112088 0.957710
0.244818 -0.115792 0.962630
0.243701 -0.116839 0.962787
0.267279 -0.112508 0.957029
0.287343 -0.117120 0.950640
0.288804 -0.117696 0.950126
0.287343 -0.117120 0.950640
0.267279 -0.112508 0.957029
0.265006 -0.112088 0.957710
0.802200 0.024901 0.596537
0.802200 0.024901 0.596537
0.802200 0.024901 0.596537
0.802200 0.024901 0.596537
0.802200 0.024901 0.596537
0.802200 0.024901 0.596537
0.013401 -0.010992 -0.999850
0.013401 -0.010992 -0.999850
0.013401 -0.010992 -0.999850
0.013401 -0.010992 -0.999850
0.013401 -0.010992 -0.999850
0.013401 -0.010992 -0.999850
0.022106 -0.012290 -0.999680
0.022106 -0.012290 -0.999680
0.022106 -0.012290 -0.999680
0.022106 -0.012290 -0.999680
0.022106 -0.012290 -0.999680
0.022106 -0.012290 -0.999680
0.889433 0.430330 0.154027
0.889433 0.430330 0.154027
0.889433 0.430330 0.154027
0.957067 0.061183 0.283338
0.959923 0.067262 0.272074
0.982944 0.165722 0.079734
0.957067 0.061183 0.283338
0.905328 -0.018242 0.424320
0.959923 0.067262 0.272074
0.602010 0.128213 0.788128
0.602010 0.128213 0.788128
0.602010 0.128213 0.788128
0.397412 0.269151 0.877281
0.397412 0.269151 0.877281
0.397412 0.269151 0.877281
0.924982 0.321655 -0.202352
0.924982 0.321655 -0.202352
0.924982 0.321655 -0.202352
0.000000 0.116737 -0.993163
0.000000 0.116737 -0.993163
0.000000 0.116737 -0.993163
0.925450 0.359321 -0.120131
0.925450 0.359321 -0.120131
0.925450 0.359321 -0.120131
0.429748 -0.214972 0.876986
0.429748 -0.214972 0.876986
0.429748 -0.214972 0.876986
0.429748 -0.214972 0.876986
0.429748 -0.214972 0.876986
0.429748 -0.214972 0.876986
0.724033 0.303029 0.619637
0.086445 0.024734 0.995950
0.412685 0.166755 0.895480
-0.021320 -0.056281 -0.998187
-0.021027 -0.029632 -0.999340
0.303020 0.011372 -0.952916
0.303020 0.011372 -0.952916
-0.021027 -0.029632 -0.999340
0.335300 0.126942 -0.933520
0.686262 0.283279 -0.669924
0.634181 0.260500 -0.727979
0.667232 0.274661 -0.692360
0.667232 0.274661 -0.692360
0.634181 0.260500 -0.727979
0.335300 0.126942 -0.933520
0.071066 -0.029325 0.997041
0.086445 0.024734 0.995950
0.027525 -0.002807 0.999617
0.027525 -0.002807 0.999617
0.058563 -0.039477 0.997503
0.071066 -0.029325 0.997041
0.008701 -0.069680 -0.997531
-0.021320 -0.056281 -0.998187
-0.022091 -0.092319 -0.995484
-0.022091 -0.092319 -0.995484
-0.021320 -0.056281 -0.998187
0.303020 0.011372 -0.952916
0.790159 0.180462 -0.585732
0.790159 0.180462 -0.585732
0.790159 0.180462 -0.585732
0.724033 0.303029 0.619637
0.412685 0.166755 0.895480
0.679148 0.284095 0.676793
0.724033 0.303029 0.619637
0.679148 0.284095 0.676793
0.737765 0.309134 0.600116
0.084547 -0.060237 0.994597
0.058563 -0.039477 0.997503
0.074857 -0.058754 0.995462
0.058563 -0.039477 0.997503
0.084547 -0.060237 0.994597
0.071066 -0.029325 0.997041
0.603125 0.182402 0.776511
0.367052 0.046324 0.929046
0.142279 -0.060291 0.987989
0.594485 -0.062612 0.801665
0.503467 -0.080993 0.860210
0.594485 -0.062612 0.801665
0.594485 -0.062612 0.801665
0.503467 -0.080993 0.860210
0.474238 -0.086453 0.876141
0.003718 -0.010897 -0.999934
0.003718 -0.010897 -0.999934
0.003718 -0.010897 -0.999934
0.003718 -0.010897 -0.999934
0.003718 -0.010897 -0.999934
0.003718 -0.010897 -0.999934
-0.021027 -0.029632 -0.999340
-0.021320 -0.056281 -0.998187
0.030798 -0.012668 -0.999445
0.030798 -0.012668 -0.999445
-0.021320 -0.056281 -0.998187
0.034446 -0.043395 -0.998464
0.008701 -0.069680 -0.997531
0.034446 -0.043395 -0.998464
-0.021320 -0.056281 -0.998187
0.034446 -0.043395 -0.998464
0.008701 -0.069680 -0.997531
0.036357 -0.059588 -0.997561
-0.074702 -0.083548 -0.993700
-0.074702 -0.083548 -0.993700
-0.074702 -0.083548 -0.993700
-0.074702 -0.083548 -0.993700
-0.074702 -0.083548 -0.993700
-0.074702 -0.083548 -0.993700
-0.078997 -0.067813 0.994566
-0.078997 -0.067813 0.994566
-0.078997 -0.067813 0.994566
-0.078997 -0.067813 0.994566
-0.078997 -0.067813 0.994566
-0.078997 -0.067813 0.994566
-0.076483 -0.045976 -0.996010
-0.076483 -0.045976 -0.996010
-0.076483 -0.045976 -0.996010
0.999804 -0.019814 -0.000001
0.999804 -0.019814 -0.000001
0.999804 -0.019814 -0.000001
-0.022037 -0.049823 0.998515
-0.022037 -0.049823 0.998515
-0.022037 -0.049823 0.998515
0.303020 0.011372 -0.952916
0.586464 0.165166 -0.792957
-0.022091 -0.092319 -0.995484
0.142279 -0.060291 0.987989
0.071066 -0.029325 0.997041
0.084547 -0.060237 0.994597
0.071066 -0.029325 0.997041
0.142279 -0.060291 0.987989
0.367052 0.046324 0.929046
-0.021027 -0.029632 -0.999340
0.667232 0.274661 -0.692360
0.335300 0.126942 -0.933520
0.303020 0.011372 -0.952916
0.335300 0.126942 -0.933520
0.586464 0.165166 -0.792957
0.634181 0.260500 -0.727979
0.586464 0.165166 -0.792957
0.335300 0.126942 -0.933520
0.367052 0.046324 0.929046
0.412685 0.166755 0.895480
0.086445 0.024734 0.995950
0.086445 0.024734 0.995950
0.071066 -0.029325 0.997041
0.367052 0.046324 0.929046
0.603125 0.182402 0.776511
0.679148 0.284095 0.676793
0.412685 0.166755 0.895480
0.412685 0.166755 0.895480
0.367052 0.046324 0.929046
0.603125 0.182402 0.776511
0.789145 0.276948 0.548225
0.789145 0.276948 0.548225
0.789145 0.276948 0.548225
0.000000 -1.000000 0.000000
0.000000 -1.000000 0.000000
0.000000 -1.000000 0.000000
0.000000 -1.000000 0.000000
0.000000 -1.000000 0.000000
0.000000 -1.000000 0.000000
-0.013101 -0.032480 -0.999386
-0.013101 -0.032480 -0.999387
-0.013101 -0.032480 -0.999387
-0.013101 -0.032480 -0.999387
-0.013101 -0.032480 -0.999387
-0.013101 -0.032480 -0.999386
-0.243336 0.002945 0.969938
-0.211310 -0.156861 0.964750
-0.244818 -0.115792 0.962630
-0.211310 -0.156861 0.964750
-0.243336 0.002945 0.969938
-0.210946 -0.157328 0.964754
-0.221584 0.503924 0.834842
-0.221584 0.503924 0.834842
-0.221584 0.503924 0.834842
-0.221584 0.503924 0.834842
-0.221584 0.503924 0.834842
-0.221584 0.503924 0.834842
-0.925450 0.359321 -0.120131
-0.925450 0.359321 -0.120131
-0.925450 0.359321 -0.120131
0.000000 0.087010 -0.996207
0.000000 0.087010 -0.996207
0.000000 0.087010 -0.996207
0.000000 0.087010 -0.996207
0.000000 0.087010 -0.996207
0.000000 0.087010 -0.996207
0.000000 -0.000000 -1.000000
0.000000 -0.000000 -1.000000
0.000000 -0.000000 -1.000000
0.000000 -0.000000 -1.000000
0.000000 -0.000000 -1.000000
0.000000 -0.000000 -1.000000
-0.976127 -0.217202 -0.000001
-0.976127 -0.217202 -0.000001
-0.976127 -0.217202 -0.000001
-0.211310 -0.156861 0.964750
-0.210946 -0.157328 0.964754
-0.165447 -0.203366 0.965023
-0.211310 -0.156861 0.964750
-0.165447 -0.203366 0.965023
-0.157390 -0.207955 0.965393
0.000000 -0.071898 -0.997412
0.000000 -0.071898 -0.997412
0.000000 -0.071898 -0.997412
0.000000 -0.071898 -0.997412
0.000000 -0.071898 -0.997412
0.000000 -0.071898 -0.997412
-0.346168 -0.322632 0.880952
-0.346168 -0.322632 0.880952
-0.346168 -0.322632 0.880952
-0.346168 -0.322632 0.880952
-0.346168 -0.322632 0.880952
-0.346168 -0.322632 0.880952
-0.131371 -0.222599 0.966018
-0.157390 -0.207955 0.965393
-0.165447 -0.203366 0.965023
-0.157390 -0.207955 0.965393
-0.131371 -0.222599 0.966018
-0.131371 -0.222599 0.966018
-0.474238 -0.086453 0.876141
-0.371926 -0.104099 0.922407
-0.503467 -0.080993 0.860210
-0.371926 -0.104099 0.922407
-0.474238 -0.086453 0.876141
-0.371926 -0.104099 0.922407
-0.768191 0.255911 0.586850
-0.768191 0.255911 0.586850
-0.768191 0.255911 0.586850
-0.768191 0.255911 0.586850
-0.768191 0.255911 0.586850
-0.768191 0.255911 0.586850
-0.796560 -0.021542 0.604175
-0.796560 -0.021542 0.604175
-0.796560 -0.021542 0.604175
-0.294703 -0.120021 0.948022
-0.287343 -0.117120 0.950640
-0.288804 -0.117696 0.950126
-0.791121 0.146320 0.593901
-0.791121 0.146320 0.593901
-0.791121 0.146320 0.593901
-0.657238 0.289378 0.695916
-0.657238 0.289378 0.695916
-0.657238 0.289378 0.695916
-0.657238 0.289378 0.695916
-0.657238 0.289378 0.695916
-0.657237 0.289378 0.695916
-0.243336 0.002945 0.969938
-0.206102 0.172169 0.963265
-0.212275 0.188480 0.958861
-0.212275 0.188480 0.958861
-0.232075 0.241642 0.942205
-0.243336 0.002945 0.969938
-0.268871 -0.117552 0.955976
-0.268871 -0.117552 0.955976
-0.268871 -0.117552 0.955976
-0.268871 -0.117552 0.955976
-0.268871 -0.117552 0.955976
-0.268871 -0.117552 0.955976
-0.212275 0.188480 0.958861
-0.206102 0.172169 0.963265
-0.177441 0.097940 0.979246
-0.265006 -0.112088 0.957710
-0.244818 -0.115792 0.962630
-0.267279 -0.112508 0.957029
-0.244818 -0.115792 0.962630
-0.265006 -0.112088 0.957710
-0.243336 0.002945 0.969938
-0.287343 -0.117120 0.950640
-0.267279 -0.112508 0.957029
-0.288804 -0.117696 0.950126
-0.267279 -0.112508 0.957029
-0.287343 -0.117120 0.950640
-0.265006 -0.112088 0.957710
-0.802199 0.024901 0.596537
-0.802200 0.024901 0.596537
-0.802200 0.024901 0.596537
-0.802200 0.024901 0.596537
-0.802200 0.024901 0.596537
-0.802200 0.024901 0.596537
-0.013401 -0.010992 -0.999850
-0.013401 -0.010992 -0.999850
-0.013401 -0.010992 -0.999850
-0.013401 -0.010992 -0.999850
-0.013401 -0.010992 -0.999850
-0.013401 -0.010992 -0.999850
-0.022106 -0.012290 -0.999680
-0.022106 -0.012290 -0.999680
-0.022106 -0.012290 -0.999680
-0.022106 -0.012290 -0.999680
-0.022106 -0.012290 -0.999680
-0.022106 -0.012290 -0.999680
-0.889433 0.430330 0.154027
-0.889433 0.430330 0.154027
-0.889433 0.430330 0.154027
-0.957067 0.061183 0.283338
-0.982944 0.165722 0.079734
-0.959923 0.067262 0.272074
-0.957067 0.061183 0.283338
-0.959923 0.067262 0.272074
-0.905328 -0.018242 0.424320
-0.602010 0.128213 0.788128
-0.602010 0.128213 0.788128
-0.602010 0.128213 0.788128
-0.397412 0.269151 0.877281
-0.397412 0.269151 0.877281
-0.397412 0.269151 0.877281
-0.924982 0.321655 -0.202352
-0.924982 0.321655 -0.202352
-0.924982 0.321655 -0.202352
0.000000 0.116737 -0.993163
0.000000 0.116737 -0.993163
0.000000 0.116737 -0.993163
-0.925450 0.359321 -0.120131
-0.925450 0.359321 -0.120131
-0.925450 0.359321 -0.120131
-0.429748 -0.214972 0.876986
-0.429748 -0.214972 0.876986
-0.429748 -0.214972 0.876986
-0.429748 -0.214972 0.876986
-0.429748 -0.214972 0.876986
-0.429748 -0.214972 0.876986
-0.724032 0.303029 0.619637
-0.412685 0.166755 0.895480
-0.086445 0.024734 0.995950
-0.303020 0.011372 -0.952916
-0.335300 0.126942 -0.933520
0.021027 -0.029632 -0.999340
0.021027 -0.029632 -0.999340
0.021320 -0.056281 -0.998187
-0.303020 0.011372 -0.952916
-0.634182 0.260500 -0.727979
-0.686262 0.283279 -0.669924
-0.667232 0.274661 -0.692360
-0.667232 0.274661 -0.692360
-0.335300 0.126942 -0.933520
-0.634182 0.260500 -0.727979
-0.027525 -0.002807 0.999617
-0.071066 -0.029325 0.997040
-0.058563 -0.039477 0.997503
-0.086445 0.024734 0.995950
-0.071066 -0.029325 0.997040
-0.027525 -0.002807 0.999617
0.022091 -0.092319 -0.995484
-0.303020 0.011372 -0.952916
0.021320 -0.056281 -0.998187
0.021320 -0.056281 -0.998187
-0.008701 -0.069680 -0.997531
0.022091 -0.092319 -0.995484
-0.790159 0.180462 -0.585732
-0.790159 0.180462 -0.585732
-0.790159 0.180462 -0.585732
-0.724032 0.303029 0.619637
-0.679148 0.284095 0.676793
-0.412685 0.166755 0.895480
-0.679148 0.284095 0.676793
-0.724032 0.303029 0.619637
-0.737765 0.309134 0.600116
-0.084547 -0.060237 0.994597
-0.058563 -0.039477 0.997503
-0.071066 -0.029325 0.997040
-0.058563 -0.039477 0.997503
-0.084547 -0.060237 0.994597
-0.074857 -0.058754 0.995462
-0.603125 0.182402 0.776511
-0.142279 -0.060291 0.987989
-0.367052 0.046324 0.929046
-0.594485 -0.062612 0.801665
-0.503467 -0.080993 0.860210
-0.594485 -0.062612 0.801665
-0.503467 -0.080993 0.860210
-0.594485 -0.062612 0.801665
-0.474238 -0.086453 0.876141
-0.003718 -0.010897 -0.999934
-0.003718 -0.010897 -0.999934
-0.003718 -0.010897 -0.999934
-0.003718 -0.010897 -0.999934
-0.003718 -0.010897 -0.999934
-0.003718 -0.010897 -0.999934
0.021320 -0.056281 -0.998187
0.021027 -0.029632 -0.999340
-0.030798 -0.012668 -0.999445
-0.030798 -0.012668 -0.999445
-0.034446 -0.043395 -0.998464
0.021320 -0.056281 -0.998187
-0.034446 -0.043395 -0.998464
-0.008701 -0.069680 -0.997531
0.021320 -0.056281 -0.998187
-0.008701 -0.069680 -0.997531
-0.034446 -0.043395 -0.998464
-0.036357 -0.059588 -0.997561
0.074702 -0.083548 -0.993700
0.074702 -0.083548 -0.993700
0.074702 -0.083548 -0.993700
0.074702 -0.083548 -0.993700
0.074702 -0.083548 -0.993700
0.074702 -0.083548 -0.993700
0.078997 -0.067813 0.994566
0.078997 -0.067813 0.994566
0.078997 -0.067813 0.994566
0.078997 -0.067813 0.994566
0.078997 -0.067813 0.994566
0.078997 -0.067813 0.994566
0.076483 -0.045976 -0.996010
0.076483 -0.045976 -0.996010
0.076483 -0.045976 -0.996010
-0.999804 -0.019814 -0.000001
-0.999804 -0.019814 -0.000001
-0.999804 -0.019814 -0.000001
0.022037 -0.049823 0.998515
0.022037 -0.049823 0.998515
0.022037 -0.049823 0.998515
-0.303020 0.011372 -0.952916
0.022091 -0.092319 -0.995484
-0.586464 0.165166 -0.792957
-0.071066 -0.029325 0.997040
-0.142279 -0.060291 0.987989
-0.084547 -0.060237 0.994597
-0.142279 -0.060291 0.987989
-0.071066 -0.029325 0.997040
-0.367052 0.046324 0.929046
0.021027 -0.029632 -0.999340
-0.335300 0.126942 -0.933520
-0.667232 0.274661 -0.692360
-0.586464 0.165166 -0.792957
-0.634182 0.260500 -0.727979
-0.335300 0.126942 -0.933520
-0.335300 0.126942 -0.933520
-0.303020 0.011372 -0.952916
-0.586464 0.165166 -0.792957
-0.412685 0.166755 0.895480
-0.367052 0.046324 0.929046
-0.086445 0.024734 0.995950
-0.071066 -0.029325 0.997040
-0.086445 0.024734 0.995950
-0.367052 0.046324 0.929046
-0.679148 0.284095 0.676793
-0.603125 0.182402 0.776511
-0.412685 0.166755 0.895480
-0.367052 0.046324 0.929046
-0.412685 0.166755 0.895480
-0.603125 0.182402 0.776511
-0.789145 0.276948 0.548225
-0.789145 0.276948 0.548225
-0.789145 0.276948 0.548225
0.000000 -1.000000 0.000000
0.000000 -1.000000 0.000000
0.000000 -1.000000 0.000000
0.000000 -1.000000 0.000000
0.000000 -1.000000 0.000000
0.000000 -1.000000 0.000000
-0.754964 0.011145 0.655672
-0.492216 0.113074 0.863098
-0.782566 0.166641 0.599850
-0.754964 0.011145 0.655672
-0.782566 0.166641 0.599850
-0.947039 0.001623 0.321116
-0.754964 0.011145 0.655672
-0.947039 0.001623 0.321116
-0.930565 -0.187353 0.314560
-0.880991 -0.399496 0.253493
-0.712334 -0.249810 0.655877
-0.664467 -0.172893 0.727043
-0.664467 -0.172893 0.727043
-0.885584 -0.238400 0.398629
-0.880991 -0.399496 0.253493
-0.492216 0.113074 0.863098
-0.664467 -0.172893 0.727043
-0.286539 0.051672 0.956674
-0.712334 -0.249810 0.655877
-0.286539 0.051672 0.956674
-0.664467 -0.172893 0.727043
-0.286539 0.051672 0.956674
-0.981314 0.090886 0.169594
-0.782566 0.166641 0.599850
-0.286539 0.051672 0.956674
-0.782566 0.166641 0.599850
-0.492216 0.113074 0.863098
-0.981314 0.090886 0.169594
-0.999172 0.028658 0.028880
-0.782566 0.166641 0.599850
-0.947039 0.001623 0.321116
-0.782566 0.166641 0.599850
-0.999172 0.028658 0.028880
0.487062 -0.152117 -0.860018
0.759624 0.002108 -0.650360
0.565641 -0.204984 -0.798769
0.487062 -0.152117 -0.860018
0.835226 -0.054577 -0.547192
0.983971 0.158108 -0.082478
-0.492216 0.113074 0.863098
-0.885584 -0.238400 0.398629
-0.664467 -0.172893 0.727043
-0.885584 -0.238400 0.398629
-0.492216 0.113074 0.863098
-0.754964 0.011145 0.655672
0.487062 -0.152117 -0.860018
0.983971 0.158108 -0.082478
0.759624 0.002108 -0.650360
0.229486 -0.237135 -0.943982
0.565641 -0.204984 -0.798769
0.454976 -0.340450 -0.822855
0.565641 -0.204984 -0.798769
0.229486 -0.237135 -0.943982
0.487062 -0.152117 -0.860018
0.993315 0.054642 -0.101684
0.779082 -0.216179 -0.588471
0.840483 -0.145636 -0.521899
0.840483 -0.145636 -0.521899
0.928808 0.118506 -0.351101
0.993315 0.054642 -0.101684
0.983971 0.158108 -0.082478
0.993315 0.054642 -0.101684
0.928808 0.118506 -0.351101
0.976283 0.216213 -0.011092
0.993315 0.054642 -0.101684
0.983971 0.158108 -0.082478
0.229486 -0.237135 -0.943982
0.835226 -0.054577 -0.547192
0.487062 -0.152117 -0.860018
0.229486 -0.237135 -0.943982
0.171570 -0.095622 -0.980520
0.835226 -0.054577 -0.547192
-0.754964 0.011145 0.655672
-0.930565 -0.187353 0.314560
-0.885584 -0.238400 0.398629
0.840483 -0.145636 -0.521899
0.565641 -0.204984 -0.798769
0.928808 0.118506 -0.351101
0.928808 0.118506 -0.351101
0.565641 -0.204984 -0.798769
0.759624 0.002108 -0.650360
0.983971 0.158108 -0.082478
0.928808 0.118506 -0.351101
0.759624 0.002108 -0.650360
0.779082 -0.216179 -0.588471
0.454976 -0.340450 -0.822855
0.840483 -0.145636 -0.521899
0.565641 -0.204984 -0.798769
0.840483 -0.145636 -0.521899
0.454976 -0.340450 -0.822855
-0.999172 0.028658 0.028880
-0.985344 -0.152478 0.076472
-0.947039 0.001623 0.321116
-0.930565 -0.187353 0.314560
-0.947039 0.001623 0.321116
-0.985344 -0.152478 0.076472
-0.985344 -0.152478 0.076472
-0.880991 -0.399496 0.253493
-0.930565 -0.187353 0.314560
-0.930565 -0.187353 0.314560
-0.880991 -0.399496 0.253493
-0.885584 -0.238400 0.398629
0.835226 -0.054577 -0.547192
0.996863 0.079149 0.000000
0.983971 0.158108 -0.082478
0.996863 0.079149 0.000000
0.835226 -0.054577 -0.547192
0.998747 -0.050048 0.000000
0.983971 0.158108 -0.082478
0.978336 0.207025 0.000000
0.976283 0.216213 -0.011092
0.978336 0.207025 0.000000
0.983971 0.158108 -0.082478
0.996863 0.079149 0.000000
-0.313379 -0.949628 0.000000
-0.313379 -0.949628 0.000000
-0.313379 -0.949628 0.000000
-0.313379 -0.949628 0.000000
-0.313379 -0.949628 0.000000
-0.313379 -0.949628 0.000000
-0.999172 0.028658 0.028880
-0.981314 0.090886 0.169594
-0.998754 0.049897 0.000000
-0.999172 0.028658 0.028880
-0.998754 0.049897 0.000000
-0.998754 0.049897 0.000000
0.000000 0.000000 -1.000000
0.000000 0.000000 -1.000000
0.000000 0.000000 -1.000000
0.000000 0.000000 -1.000000
0.000000 0.000000 -1.000000
0.000000 0.000000 -1.000000
0.754964 0.011145 0.655672
0.782566 0.166641 0.599851
0.492216 0.113074 0.863098
0.947039 0.001623 0.321116
0.754964 0.011145 0.655672
0.930565 -0.187353 0.314560
0.782566 0.166641 0.599851
0.754964 0.011145 0.655672
0.947039 0.001623 0.321116
0.885584 -0.238400 0.398629
0.664467 -0.172893 0.727043
0.880991 -0.399496 0.253493
0.712335 -0.249810 0.655877
0.880991 -0.399496 0.253493
0.664467 -0.172893 0.727043
0.664467 -0.172893 0.727043
0.492216 0.113074 0.863098
0.286539 0.051672 0.956674
0.286539 0.051672 0.956674
0.712335 -0.249810 0.655877
0.664467 -0.172893 0.727043
0.981314 0.090886 0.169594
0.286539 0.051672 0.956674
0.782566 0.166641 0.599851
0.782566 0.166641 0.599851
0.286539 0.051672 0.956674
0.492216 0.113074 0.863098
0.782566 0.166641 0.599851
0.947039 0.001623 0.321116
0.999172 0.028658 0.028880
0.999172 0.028658 0.028880
0.981314 0.090886 0.169594
0.782566 0.166641 0.599851
-0.487062 -0.152117 -0.860018
-0.565641 -0.204984 -0.798769
-0.759624 0.002108 -0.650360
-0.487062 -0.152117 -0.860018
-0.983971 0.158108 -0.082478
-0.835226 -0.054577 -0.547192
0.492216 0.113074 0.863098
0.885584 -0.238400 0.398629
0.754964 0.011145 0.655672
0.885584 -0.238400 0.398629
0.492216 0.113074 0.863098
0.664467 -0.172893 0.727043
-0.487062 -0.152117 -0.860018
-0.759624 0.002108 -0.650360
-0.983971 0.158108 -0.082478
-0.229486 -0.237135 -0.943983
-0.454976 -0.340450 -0.822855
-0.565641 -0.204984 -0.798769
-0.229486 -0.237135 -0.943983
-0.565641 -0.204984 -0.798769
-0.487062 -0.152117 -0.860018
-0.928808 0.118506 -0.351101
-0.840483 -0.145636 -0.521899
-0.993315 0.054642 -0.101684
-0.779082 -0.216179 -0.588471
-0.993315 0.054642 -0.101684
-0.840483 -0.145636 -0.521899
-0.993315 0.054642 -0.101684
-0.976283 0.216213 -0.011092
-0.983971 0.158108 -0.082478
-0.993315 0.054642 -0.101684
-0.983971 0.158108 -0.082478
-0.928808 0.118506 -0.351101
-0.835226 -0.054577 -0.547192
-0.229486 -0.237135 -0.943983
-0.487062 -0.152117 -0.860018
-0.171570 -0.095622 -0.980520
-0.229486 -0.237135 -0.943983
-0.835226 -0.054577 -0.547192
0.754964 0.011145 0.655672
0.885584 -0.238400 0.398629
0.930565 -0.187353 0.314560
-0.840483 -0.145636 -0.521899
-0.928808 0.118506 -0.351101
-0.565641 -0.204984 -0.798769
-0.565641 -0.204984 -0.798769
-0.928808 0.118506 -0.351101
-0.759624 0.002108 -0.650360
-0.983971 0.158108 -0.082478
-0.759624 0.002108 -0.650360
-0.928808 0.118506 -0.351101
-0.840483 -0.145636 -0.521899
-0.565641 -0.204984 -0.798769
-0.454976 -0.340450 -0.822855
-0.454976 -0.340450 -0.822855
-0.779082 -0.216179 -0.588471
-0.840483 -0.145636 -0.521899
0.947039 0.001623 0.321116
0.930565 -0.187353 0.314560
0.985344 -0.152478 0.076472
0.947039 0.001623 0.321116
0.985344 -0.152478 0.076472
0.999172 0.028658 0.028880
0.880991 -0.399496 0.253493
0.985344 -0.152478 0.076472
0.930565 -0.187353 0.314560
0.880991 -0.399496 0.253493
0.930565 -0.187353 0.314560
0.885584 -0.238400 0.398629
-0.996863 0.079149 0.000000
-0.835226 -0.054577 -0.547192
-0.983971 0.158108 -0.082478
-0.835226 -0.054577 -0.547192
-0.996863 0.079149 0.000000
-0.998747 -0.050048 0.000000
-0.983971 0.158108 -0.082478
-0.978336 0.207025 0.000000
-0.996863 0.079149 0.000000
-0.978336 0.207025 0.000000
-0.983971 0.158108 -0.082478
-0.976283 0.216213 -0.011092
0.313379 -0.949628 0.000000
0.313379 -0.949628 0.000000
0.313379 -0.949628 0.000000
0.313379 -0.949628 0.000000
0.313379 -0.949628 0.000000
0.313379 -0.949628 0.000000
0.998754 0.049897 0.000000
0.998754 0.049897 0.000000
0.999172 0.028658 0.028880
0.981314 0.090886 0.169594
0.999172 0.028658 0.028880
0.998754 0.049897 0.000000
0.000000 0.000000 -1.000000
0.000000 0.000000 -1.000000
0.000000 0.000000 -1.000000
0.000000 0.000000 -1.000000
0.000000 0.000000 -1.000000
0.000000 0.000000 -1.000000
</float_array>
          <technique_common>
            <accessor source="#hull-Normal0-array" count="846" stride="3">
              <param name="X" type="float"/>
              <param name="Y" type="float"/>
              <param name="Z" type="float"/>
            </accessor>
          </technique_common>
        </source>
        <source id="hull-UV0">
          <float_array id="hull-UV0-array" count="450">
0.557807 0.452940
0.504808 0.477654
0.303124 0.158184
0.386319 0.158184
0.511955 0.526396
0.352278 0.419594
0.303124 0.418960
0.303124 0.549738
0.574304 0.488316
0.511666 0.353989
0.357236 0.600461
0.332378 0.649494
0.303124 0.628337
0.500658 0.359122
0.705152 0.768922
0.614566 0.811164
0.632991 0.833864
0.443081 0.665411
0.717138 0.794626
0.303124 0.125876
0.378173 0.125876
0.614566 0.811164
0.705532 0.861393
0.740639 0.845023
0.519997 0.619635
0.579407 0.739958
0.409574 0.125876
0.316135 0.062530
0.347536 0.062530
0.303124 0.062530
0.417720 0.158184
0.420895 0.248944
0.387938 0.255221
0.390673 0.419192
0.671599 0.696968
0.426259 0.402308
0.387881 0.502436
0.379601 0.473303
0.356318 0.510529
0.324634 0.520012
0.303124 0.519028
0.614902 0.575380
0.497508 0.323628
0.510943 0.619255
0.507302 0.953236
0.354247 0.474070
0.515230 0.956086
0.332670 0.472877
0.369380 0.548961
0.303124 0.472021
0.503969 0.520705
0.503335 0.620541
0.391903 0.511312
0.303124 0.717893
0.484072 0.621534
0.515977 0.981390
0.523919 0.984272
0.434187 0.405633
0.531489 0.962099
0.548805 0.992834
0.557571 0.971744
0.501239 0.951008
0.730354 0.849819
0.740639 0.845023
0.643551 0.465032
0.610807 0.428226
0.522673 0.348856
0.801286 0.755387
0.795739 0.726681
0.577179 0.042347
0.591160 0.056384
0.440935 0.408542
0.595789 0.023100
0.795739 0.726681
0.775746 0.828652
0.709807 0.531125
0.763791 0.653978
0.574078 0.002279
0.603238 0.068361
0.970608 0.743739
0.973520 0.735835
0.715336 0.523946
0.721211 0.518944
0.644325 0.455255
0.986614 0.768514
0.989512 0.760577
0.598017 0.063142
0.602645 0.029899
0.554751 0.019833
0.253970 0.419594
0.219929 0.158184
0.273870 0.649494
0.964763 0.760060
0.249012 0.600461
0.162590 0.665411
0.228075 0.125876
0.196674 0.125876
0.977177 0.793081
0.955386 0.786239
0.975711 0.729758
0.750923 0.840227
0.466299 0.709660
0.432836 0.589545
0.392853 0.606062
0.423760 0.559455
0.395194 0.564273
0.258712 0.062530
0.290113 0.062530
0.401099 0.515014
0.462248 0.617899
0.218310 0.255221
0.470485 0.581323
0.480617 0.736948
0.478903 0.772013
0.139372 0.709660
0.185353 0.248944
0.188528 0.158184
0.215574 0.419192
0.226646 0.473303
0.218367 0.502436
0.179989 0.402308
0.249929 0.510529
0.281614 0.520012
0.252001 0.474070
0.273578 0.472877
0.236868 0.548961
0.214345 0.511312
0.121599 0.621534
0.172835 0.589545
0.172061 0.405633
0.015088 0.056384
0.029069 0.042347
0.212818 0.606062
0.181911 0.559455
0.204572 0.515014
0.210477 0.564273
0.143423 0.617898
0.165313 0.408542
0.010459 0.023100
0.032170 0.002279
0.135186 0.581323
0.003010 0.068361
0.126768 0.772013
0.125053 0.736948
0.003603 0.029899
0.008231 0.063142
0.051497 0.019833
0.808261 0.214767
0.746343 0.219952
0.821007 0.036765
0.838271 0.172113
0.832430 0.205194
0.835700 0.408925
0.802493 0.406696
0.801340 0.367468
0.839491 0.439760
0.845707 0.438735
0.747777 0.296982
0.804323 0.243999
0.804376 0.250621
0.744999 0.307188
0.849359 0.439214
0.828547 0.578354
0.837937 0.408040
0.743457 0.223721
0.822585 0.023639
0.841105 0.171003
0.849580 0.443481
0.845952 0.444101
0.849329 0.445025
0.845962 0.443668
0.800523 0.361951
0.737076 0.308125
0.740948 0.318273
0.743255 0.396729
0.739588 0.393136
0.830266 0.591675
0.841905 0.440778
0.843659 0.439760
0.842419 0.578354
0.844172 0.591675
0.838724 0.203221
0.836516 0.023639
0.844717 0.171003
0.849583 0.591171
0.846165 0.578332
0.910921 0.214767
0.849003 0.219952
0.923668 0.036765
0.940931 0.172113
0.935090 0.205194
0.850437 0.296982
0.906983 0.243999
0.907036 0.250621
0.847660 0.307188
0.846118 0.223721
0.925245 0.023639
0.943765 0.171003
0.938360 0.408925
0.905154 0.406696
0.904000 0.367468
0.942151 0.439760
0.931207 0.578354
0.940597 0.408040
0.903183 0.361951
0.839736 0.308125
0.843608 0.318273
0.845915 0.396729
0.842248 0.393136
0.932926 0.591675
0.944565 0.440778
0.941384 0.203221
0.946319 0.439760
0.945079 0.578354
0.946832 0.591674
0.948367 0.438735
0.952019 0.439214
0.952240 0.443481
0.948622 0.443668
0.939177 0.023639
0.947377 0.171003
0.948612 0.444101
0.951989 0.445025
0.952243 0.591171
0.948825 0.578332
</float_array>
          <technique_common>
            <accessor source="#hull-UV0-array" count="225" stride="2">
              <param name="S" type="float"/>
              <param name="T" type="float"/>
            </accessor>
          </technique_common>
        </source>
        <vertices id="hull-VERTEX">
          <input semantic="POSITION" source="#hull-POSITION"/>
        </vertices>
        <triangles count="282" material="f-117"><input semantic="VERTEX" offset="0" source="#hull-VERTEX"/><input semantic="NORMAL" offset="1" source="#hull-Normal0"/><input semantic="TEXCOORD" offset="2" set="0" source="#hull-UV0"/><p> 54 0 8 1 1 1 27 2 4 1 3 1 54 4 8 4 5 0 57 6 6 6 7 2 22 8 5 6 9 2 2 10 3 22 11 5 28 12 12 7 13 7 3 14 10 28 15 12 3 16 10 29 17 11 3 18 17 1 19 54 29 20 101 4 21 0 8 22 13 1 23 1 8 24 13 4 25 0 60 26 9 9 27 16 64 28 18 5 29 14 5 30 14 0 31 15 9 32 16 0 33 15 34 34 21 9 35 16 66 36 19 10 37 20 6 38 2 2 39 3 6 40 2 10 41 20 51 42 23 64 43 18 50 44 22 64 45 18 9 46 16 50 47 22 50 48 28 9 49 26 10 50 20 10 51 20 11 52 27 50 53 28 66 54 19 11 55 27 10 56 20 11 57 27 66 58 19 12 59 29 45 60 32 2 61 3 44 62 31 44 63 31 2 64 3 34 65 30 13 66 35 15 67 36 16 68 37 13 69 35 16 70 37 14 71 33 17 72 102 3 73 17 19 74 103 7 75 7 18 76 40 19 77 39 21 78 104 23 79 105 22 80 108 15 81 36 17 82 38 16 83 37 17 84 38 15 85 36 20 86 48 21 87 45 22 88 5 16 89 37 22 90 5 14 91 33 16 92 37 45 93 32 14 94 33 22 95 5 22 96 5 2 97 3 45 98 32 16 99 37 17 100 38 21 101 45 24 102 49 57 103 6 23 104 47 23 105 47 57 106 6 22 107 5 24 108 49 19 109 39 18 110 40 19 111 39 24 112 49 23 113 47 23 114 105 17 115 102 19 116 103 17 117 102 23 118 105 21 119 104 39 120 34 25 121 41 40 122 25 40 123 25 25 124 41 26 125 24 25 126 41 27 127 4 26 128 24 27 129 4 25 130 41 54 131 8 20 132 109 35 133 111 1 134 54 3 135 17 20 136 109 1 137 54 3 138 17 17 139 102 20 140 109 3 141 10 7 142 7 19 143 39 28 144 12 29 145 11 84 146 53 29 147 101 8 148 112 84 149 113 8 150 13 60 151 9 84 152 42 1 153 54 8 154 112 29 155 101 2 156 3 9 157 26 34 158 30 9 159 26 2 160 3 10 161 20 15 162 36 13 163 35 49 164 57 32 165 46 26 166 24 33 167 44 33 168 44 26 169 24 48 170 43 35 171 50 47 172 51 27 173 4 27 174 4 47 175 51 48 176 43 30 177 70 13 178 35 44 179 31 44 180 31 43 181 69 30 182 70 38 183 56 32 184 46 46 185 55 46 186 55 32 187 46 33 188 44 35 189 50 27 190 4 1 191 1 15 192 36 49 193 57 47 194 71 15 195 36 47 196 71 35 197 52 38 198 72 43 199 69 42 200 77 43 201 69 38 202 72 30 203 70 37 204 78 31 205 86 46 206 87 14 207 33 45 208 32 13 209 35 13 210 35 45 211 32 44 212 31 5 213 14 39 214 34 0 215 15 0 216 15 39 217 34 40 218 25 26 219 24 32 220 46 40 221 25 40 222 25 32 223 46 41 224 58 38 225 56 41 226 58 32 227 46 41 228 58 38 229 56 42 230 59 36 231 60 34 232 21 41 233 58 40 234 25 41 235 58 34 236 21 34 237 30 36 238 88 43 239 69 43 240 69 44 241 31 34 242 30 42 243 59 36 244 60 41 245 58 0 246 15 40 247 25 34 248 21 42 249 77 43 250 69 36 251 88 33 252 44 37 253 61 46 254 55 46 255 87 30 256 70 38 257 72 30 258 70 46 259 87 31 260 86 26 261 24 27 262 4 48 263 43 33 264 44 48 265 43 37 266 61 47 267 51 37 268 61 48 269 43 31 270 86 49 271 57 13 272 35 13 273 35 30 274 70 31 275 86 37 276 78 47 277 71 49 278 57 49 279 57 31 280 86 37 281 78 20 282 48 15 283 36 35 284 52 11 285 62 51 286 23 50 287 22 11 288 62 12 289 63 51 290 23 53 291 64 52 292 65 54 293 8 54 294 8 52 295 65 4 296 0 56 297 89 6 298 2 57 299 6 6 300 2 56 301 89 55 302 90 7 303 7 28 304 12 58 305 93 28 306 12 59 307 91 58 308 93 58 309 94 59 310 114 52 311 127 4 312 0 61 313 66 60 314 9 61 315 66 4 316 0 52 317 65 63 318 67 5 319 14 64 320 18 5 321 14 63 322 67 62 323 68 62 324 68 63 325 67 65 326 73 6 327 2 55 328 90 67 329 95 6 330 2 67 331 95 66 332 19 68 333 74 64 334 18 51 335 23 64 336 18 68 337 74 63 338 67 69 339 107 67 340 95 68 341 106 63 342 96 68 343 106 67 344 95 69 345 107 66 346 19 67 347 95 66 348 19 69 349 107 12 350 29 70 351 115 55 352 90 71 353 110 55 354 90 70 355 115 65 356 116 74 357 119 73 358 120 75 359 118 75 360 118 73 361 120 72 362 117 76 363 128 77 364 132 58 365 94 7 366 7 77 367 122 18 368 40 78 369 133 56 370 134 79 371 135 76 372 121 74 373 119 75 374 118 74 375 119 76 376 121 80 377 125 56 378 89 78 379 123 75 380 118 75 381 118 72 382 117 56 383 89 72 384 117 71 385 110 56 386 89 55 387 90 56 388 89 71 389 110 75 390 118 78 391 123 76 392 121 79 393 124 57 394 6 24 395 49 57 396 6 79 397 124 56 398 89 77 399 122 24 400 49 18 401 40 24 402 49 77 403 122 79 404 124 77 405 132 76 406 128 79 407 135 79 408 135 76 409 128 78 410 133 82 411 76 25 412 41 39 413 34 25 414 41 82 415 76 81 416 75 25 417 41 81 418 75 53 419 64 25 420 41 53 421 64 54 422 8 80 423 136 52 424 127 83 425 140 58 426 94 52 427 127 80 428 136 58 429 94 80 430 136 76 431 128 58 432 93 77 433 122 7 434 7 28 435 12 84 436 53 59 437 91 59 438 114 84 439 142 61 440 143 61 441 66 84 442 42 60 443 9 52 444 127 59 445 114 61 446 143 63 447 96 55 448 90 65 449 116 55 450 90 63 451 96 67 452 95 74 453 119 85 454 129 73 455 120 87 456 80 86 457 81 81 458 75 81 459 75 88 460 79 87 461 80 89 462 82 83 463 83 53 464 64 53 465 64 86 466 81 89 467 82 70 468 115 91 469 130 90 470 131 73 471 120 91 472 130 70 473 115 92 474 85 87 475 80 88 476 79 88 477 79 93 478 84 92 479 85 83 480 83 52 481 65 53 482 64 74 483 119 89 484 137 85 485 129 89 486 137 74 487 119 83 488 126 93 489 138 90 490 131 91 491 130 90 492 131 93 493 138 94 494 139 95 495 141 92 496 144 96 497 145 73 498 120 71 499 110 72 500 117 71 501 110 73 502 120 70 503 115 62 504 68 39 505 34 5 506 14 39 507 34 62 508 68 82 509 76 88 510 79 81 511 75 82 512 76 82 513 76 97 514 92 88 515 79 97 516 92 93 517 84 88 518 79 93 519 84 97 520 92 94 521 97 97 522 92 82 523 76 65 524 73 65 525 73 98 526 98 97 527 92 65 528 116 90 529 131 98 530 146 70 531 115 90 532 131 65 533 116 94 534 97 97 535 92 98 536 98 62 537 68 65 538 73 82 539 76 94 540 139 98 541 146 90 542 131 87 543 80 92 544 85 95 545 99 91 546 130 92 547 144 93 548 138 92 549 144 91 550 130 96 551 145 81 552 75 86 553 81 53 554 64 95 555 99 89 556 82 86 557 81 86 558 81 87 559 80 95 560 99 85 561 129 96 562 145 73 563 120 91 564 130 73 565 120 96 566 145 89 567 137 95 568 141 85 569 129 96 570 145 85 571 129 95 572 141 80 573 125 83 574 126 74 575 119 69 576 100 68 577 74 51 578 23 69 579 100 51 580 23 12 581 63 99 582 147 101 583 148 102 584 149 99 585 147 102 586 149 103 587 150 99 588 147 103 589 150 117 590 151 116 591 159 110 592 160 100 593 157 100 594 157 118 595 158 116 596 159 101 597 148 100 598 157 111 599 164 110 600 160 111 601 164 100 602 157 111 603 164 112 604 165 102 605 149 111 606 164 102 607 149 101 608 148 112 609 165 113 610 166 102 611 149 103 612 150 102 613 149 113 614 166 104 615 152 115 616 153 114 617 154 104 618 152 108 619 155 107 620 162 101 621 148 118 622 158 100 623 157 118 624 158 101 625 148 99 626 147 104 627 152 107 628 162 115 629 153 109 630 163 114 631 154 116 632 171 114 633 154 109 634 163 104 635 152 111 636 175 110 637 172 105 638 173 105 639 173 106 640 174 111 641 175 107 642 162 111 643 175 106 644 174 112 645 176 111 646 175 107 647 162 109 648 163 108 649 155 104 650 152 109 651 163 113 652 177 108 653 155 99 654 147 117 655 151 118 656 158 105 657 173 114 658 154 106 659 174 106 660 174 114 661 154 115 662 153 107 663 162 106 664 174 115 665 153 110 666 172 116 667 171 105 668 173 114 669 154 105 670 173 116 671 171 113 672 166 109 673 181 103 674 150 117 675 151 103 676 150 109 677 181 109 678 181 116 679 159 117 680 151 117 681 151 116 682 159 118 683 158 108 684 155 119 685 179 107 686 162 119 687 179 108 688 155 120 689 178 107 690 162 121 691 180 112 692 176 121 693 180 107 694 162 119 695 179 113 696 161 120 697 170 108 698 156 120 699 170 113 700 161 122 701 167 113 702 166 112 703 165 121 704 182 113 705 166 121 706 182 122 707 183 119 708 185 120 709 168 122 710 169 122 711 169 121 712 184 119 713 185 123 714 186 125 715 188 124 716 187 126 717 189 123 718 186 127 719 190 125 720 188 123 721 186 126 722 189 129 723 192 128 724 191 130 725 193 131 726 194 130 727 193 128 728 191 128 729 191 124 730 187 132 731 195 132 732 195 131 733 194 128 734 191 133 735 196 132 736 195 125 737 188 125 738 188 132 739 195 124 740 187 125 741 188 126 742 189 134 743 197 134 744 197 133 745 196 125 746 188 135 747 198 137 748 200 136 749 199 135 750 198 139 751 202 138 752 201 124 753 187 129 754 192 123 755 186 129 756 192 124 757 187 128 758 191 135 759 198 136 760 199 139 761 202 140 762 203 130 763 204 137 764 200 140 765 203 137 766 200 135 767 198 142 768 207 141 769 206 132 770 208 131 771 205 132 772 208 141 773 206 132 774 208 133 775 209 139 776 202 132 777 208 139 778 202 142 779 207 138 780 201 140 781 203 135 782 198 134 783 210 140 784 203 138 785 201 123 786 186 129 787 192 127 788 190 141 789 206 142 790 207 137 791 200 137 792 200 142 793 207 136 794 199 139 795 202 136 796 199 142 797 207 141 798 206 137 799 200 130 800 204 130 801 204 131 802 205 141 803 206 126 804 189 127 805 190 140 806 211 126 807 189 140 808 211 134 809 197 130 810 193 140 811 211 127 812 190 130 813 193 127 814 190 129 815 192 144 816 213 138 817 201 139 818 202 138 819 201 144 820 213 143 821 212 139 822 202 145 823 214 144 824 213 145 825 214 139 826 202 133 827 209 134 828 216 143 829 218 146 830 217 143 831 218 134 832 216 138 833 215 146 834 220 145 835 219 134 836 197 133 837 196 134 838 197 145 839 219 143 840 221 144 841 224 146 842 222 145 843 223 146 844 222 144 845 224</p></triangles>
      </mesh>
    </geometry>
  </library_geometries>
  <library_visual_scenes>
    <visual_scene id="f-117" name="f-117">
      <node name="hull" id="hull" sid="hull"><matrix sid="matrix">1.000000 0.000000 0.000000 0.000000 0.000000 0.000000 1.000000 0.000000 0.000000 -1.000000 0.000000 0.000000 0.000000 0.000000 0.000000 1.000000</matrix><instance_geometry url="#hull-lib"><bind_material><technique_common><instance_material symbol="f-117" target="#f-117"/></technique_common></bind_material></instance_geometry><extra><technique profile="FCOLLADA"><visibility>1.000000</visibility></technique></extra></node>
      <extra><technique profile="MAX3D"><frame_rate>30.000000</frame_rate></technique><technique profile="FCOLLADA"><start_time>0.000000</start_time><end_time>3.333333</end_time></technique></extra>
    </visual_scene>
  </library_visual_scenes>
  <scene>
    <instance_visual_scene url="#f-117"></instance_visual_scene>
  </scene>
</COLLADA>
