<svg xmlns="http://www.w3.org/2000/svg" width="45.58730158730158" height="48" viewBox="0 0 45.58730158730158 48"><g transform="translate(-16.033263191344243,-25.027682834201386) scale(0.12698412698412698,0.12698412698412698)"><g id="0_020_0">        <rect height="22.667" stroke="#000000" stroke-width="2" width="75" x="268.5" y="198.093"/>        <path d="M221,480c0,115,170,115,170,0   c115,0,115-170,0-170c0-115-170-115-170,0C106,310,106,480,221,480z" fill="#FFFF80" stroke="#000000" stroke-dasharray="0,34"  stroke-linecap="round" stroke-width="17"/>    </g><g><g id="20121404">        <g transform="translate(0 -9.5)">                <line fill="none" stroke="#000000" stroke-width="12" x1="309" x2="309" y1="487" y2="320"/>                <line fill="none" stroke="#000000" stroke-width="12" x1="269" x2="349" y1="487" y2="487"/>                <line fill="none" stroke="#000000" stroke-width="12" x1="321" x2="269" y1="324" y2="324"/>                <line fill="none" stroke="#000000" stroke-width="12" x1="279" x2="249" y1="324" y2="422"/>                <line fill="none" stroke="#000000" stroke-linecap="round" stroke-width="12" x1="309" x2="361" y1="371" y2="371"/>                <line fill="none" stroke="#000000" stroke-width="12" x1="361" x2="361" y1="371" y2="389"/>            </g>    </g></g></g></svg>